<mxfile host="app.diagrams.net" modified="2023-08-18T02:38:44.728Z" agent="Mozilla/5.0 (Windows NT 10.0; Win64; x64) AppleWebKit/537.36 (KHTML, like Gecko) Chrome/115.0.0.0 Safari/537.36" version="21.6.8" etag="SJTaPDGxUTvUosV4UBA2" type="github">
  <diagram name="第 1 页" id="FCdaLJdS4-OKYO8WHhjD">
    <mxGraphModel>
      <root>
        <mxCell id="0" />
        <mxCell id="1" parent="0" />
      </root>
    </mxGraphModel>
  </diagram>
</mxfile>
